HIERARCHY
ROOT Hips
{
	OFFSET 0.000000 0.000000 0.000000
	CHANNELS 6 Xposition Yposition Zposition Xrotation Yrotation Zrotation
	JOINT LeftUpLeg_virtual
	{
		OFFSET 0.000000 0.000000 0.000000
		CHANNELS 3 Xrotation Yrotation Zrotation
		JOINT LeftUpLeg
		{
			OFFSET 11.394100 -6.187798 -0.413800
			CHANNELS 3 Xrotation Yrotation Zrotation
			JOINT LeftLeg
			{
				OFFSET 0.430247 -32.302673 3.732800
				CHANNELS 3 Xrotation Yrotation Zrotation
				JOINT LeftFoot
				{
					OFFSET -0.430247 -48.264931 -6.423300
					CHANNELS 3 Xrotation Yrotation Zrotation
					JOINT LeftToeBase
					{
						OFFSET 4.230900 -16.068199 23.438400
						CHANNELS 3 Xrotation Yrotation Zrotation
						JOINT LeftToe_End
						{
							OFFSET 4.510700 0.695400 19.974600
							CHANNELS 3 Xrotation Yrotation Zrotation
							End Site
							{
								OFFSET 0 0 0
							}
						}
					}
				}
			}
		}
	}
	JOINT RightUpLeg_virtual
	{
		OFFSET 0.000000 0.000000 0.000000
		CHANNELS 3 Xrotation Yrotation Zrotation
		JOINT RightUpLeg
		{
			OFFSET -11.333700 -6.187798 -0.413800
			CHANNELS 3 Xrotation Yrotation Zrotation
			JOINT RightLeg
			{
				OFFSET -0.430392 -32.302628 3.733000
				CHANNELS 3 Xrotation Yrotation Zrotation
				JOINT RightFoot
				{
					OFFSET 0.430392 -48.264973 -6.423500
					CHANNELS 3 Xrotation Yrotation Zrotation
					JOINT RightToeBase
					{
						OFFSET -4.230900 -16.068199 23.438400
						CHANNELS 3 Xrotation Yrotation Zrotation
						JOINT RightToe_End
						{
							OFFSET -4.510700 0.695400 19.974600
							CHANNELS 3 Xrotation Yrotation Zrotation
							End Site
							{
								OFFSET 0 0 0
							}
						}
					}
				}
			}
		}
	}
	JOINT Spine_virtual
	{
		OFFSET 0.000000 0.000000 0.000000
		CHANNELS 3 Xrotation Yrotation Zrotation
		JOINT Spine
		{
			OFFSET -0.002400 12.777504 0.315300
			CHANNELS 3 Xrotation Yrotation Zrotation
			JOINT Spine1
			{
				OFFSET -0.002067 5.816869 0.032633
				CHANNELS 3 Xrotation Yrotation Zrotation
				JOINT Spine1_split
				{
					OFFSET -0.002067 5.816869 0.032633
					CHANNELS 3 Xrotation Yrotation Zrotation
					JOINT Spine2
					{
						OFFSET -0.002067 5.816869 0.032633
						CHANNELS 3 Xrotation Yrotation Zrotation
						JOINT Neck_virtual
						{
							OFFSET 0.000000 0.000000 0.000000
							CHANNELS 3 Xrotation Yrotation Zrotation
							JOINT Neck
							{
								OFFSET -0.003700 21.199493 -0.826900
								CHANNELS 3 Xrotation Yrotation Zrotation
								JOINT Head
								{
									OFFSET 0.000000 20.442200 4.834800
									CHANNELS 3 Xrotation Yrotation Zrotation
									JOINT HeadTop_End
									{
										OFFSET 0.000000 34.668396 4.968400
										CHANNELS 3 Xrotation Yrotation Zrotation
										End Site
										{
											OFFSET 0 0 0
										}
									}
								}
							}
						}
						JOINT LeftShoulder_virtual
						{
							OFFSET 0.000000 0.000000 0.000000
							CHANNELS 3 Xrotation Yrotation Zrotation
							JOINT LeftShoulder
							{
								OFFSET 3.288150 8.794197 -1.372250
								CHANNELS 3 Xrotation Yrotation Zrotation
								JOINT LeftShoulder_split
								{
									OFFSET 3.288150 8.794197 -1.372250
									CHANNELS 3 Xrotation Yrotation Zrotation
									JOINT LeftArm
									{
										OFFSET 11.953299 -2.279007 -0.146200
										CHANNELS 3 Xrotation Yrotation Zrotation
										JOINT LeftForeArm
										{
											OFFSET 18.448900 0.000000 0.000000
											CHANNELS 3 Xrotation Yrotation Zrotation
											JOINT LeftHand
											{
												OFFSET 29.527798 0.000000 0.000000
												CHANNELS 3 Xrotation Yrotation Zrotation
												End Site
												{
													OFFSET 0 0 0
												}
											}
										}
									}
								}
							}
						}
						JOINT RightShoulder_virtual
						{
							OFFSET 0.000000 0.000000 0.000000
							CHANNELS 3 Xrotation Yrotation Zrotation
							JOINT RightShoulder
							{
								OFFSET -3.249400 8.794197 -1.372250
								CHANNELS 3 Xrotation Yrotation Zrotation
								JOINT RightShoulder_split
								{
									OFFSET -3.249400 8.794197 -1.372250
									CHANNELS 3 Xrotation Yrotation Zrotation
									JOINT RightArm
									{
										OFFSET -11.953299 -2.279007 -0.146200
										CHANNELS 3 Xrotation Yrotation Zrotation
										JOINT RightForeArm
										{
											OFFSET -18.448900 0.000000 0.000000
											CHANNELS 3 Xrotation Yrotation Zrotation
											JOINT RightHand
											{
												OFFSET -29.527802 0.000000 0.000000
												CHANNELS 3 Xrotation Yrotation Zrotation
												End Site
												{
													OFFSET 0 0 0
												}
											}
										}
									}
								}
							}
						}
					}
				}
			}
		}
	}
}
MOTION
Frames: 8
Frame Time: 0.03333333
-18.419451 99.879807 -7.029751 0.000000 0.000000 0.000000 -173.870470 -50.940039 -170.296574 -114.618374 -26.676059 0.939160 89.931168 -8.850552 -39.708367 54.216788 -12.786253 -19.882636 -6.360941 -0.839195 0.085195 0.000000 0.000000 0.000000 -174.277030 -47.750409 -171.303357 -16.710705 32.612046 2.005897 36.138183 10.133713 -4.865613 -10.425523 15.184926 1.454798 -3.108098 2.020298 4.807354 0.000000 0.000000 0.000000 -171.624089 -50.600603 -166.955901 18.800473 4.080577 1.870327 6.969649 0.011121 0.088975 0.831151 -1.997902 0.778220 0.000000 0.000000 0.000000 10.509854 0.202274 -0.561071 4.339126 38.637810 5.907598 8.897299 47.907480 -31.348786 0.000000 0.000000 0.000000 9.663515 -0.153644 -0.400576 -2.176661 -12.729209 11.635004 3.081067 -0.094842 -1.633806 -54.750236 -49.402137 -41.979442 -97.355973 -25.978807 -91.743880 0.000000 0.000000 0.000000 7.959043 -0.439558 -0.643470 -3.810709 19.989483 3.919167 3.595935 -2.395556 4.161593 -54.871172 13.913566 26.522724 128.623295 41.324953 -123.997522 0.000000 0.000000 0.000000 
-19.362244 100.843903 -7.338848 0.000000 0.000000 0.000000 -172.681867 -48.101553 -167.923315 -120.619474 -23.556066 2.797834 88.733269 -12.125327 -38.993854 50.133162 -16.354741 -24.295413 -12.440285 -1.359603 2.223671 0.000000 0.000000 0.000000 -173.381757 -43.584076 -169.179524 -14.426039 34.843257 0.459701 35.741154 10.624141 -4.578821 -10.485898 16.266710 1.621265 -4.795543 2.007946 5.063460 0.000000 0.000000 0.000000 -171.566825 -47.516844 -166.337619 19.473614 4.703614 1.606319 7.545809 0.270998 -0.286083 0.572718 -2.013150 0.911253 0.000000 0.000000 0.000000 11.146006 0.406365 -1.059909 5.806325 39.049902 5.096915 8.079013 48.916531 -31.702490 0.000000 0.000000 0.000000 10.360507 0.064768 -0.764436 -1.683610 -12.404914 16.124547 2.982641 -0.538357 -1.662376 -66.384104 -46.127177 -47.698626 -96.649403 -27.697544 -91.267809 0.000000 0.000000 0.000000 8.526889 -0.277869 -1.069068 -2.777254 20.660349 -0.181133 3.596208 -2.815129 4.236418 -61.665516 12.730835 25.630775 130.357657 41.011891 -126.488669 0.000000 0.000000 0.000000 
-20.138290 101.660828 -7.590294 0.000000 0.000000 0.000000 -171.620538 -45.804266 -165.464830 -126.673194 -21.587218 4.409167 89.282532 -16.477973 -37.661578 48.593599 -20.377663 -28.051198 -17.063884 -2.140504 4.441918 0.000000 0.000000 0.000000 -172.704926 -40.455726 -167.221172 -12.389370 36.814890 -1.511289 36.106586 10.968449 -4.166575 -10.145381 17.006630 2.217056 -7.379727 1.870516 5.206745 0.000000 0.000000 0.000000 -171.411356 -45.108567 -165.445951 20.077181 5.148911 1.447588 7.989549 0.435593 -0.662965 0.509805 -2.144928 1.073371 0.000000 0.000000 0.000000 11.635012 0.502629 -1.539185 7.307310 39.363548 4.067722 7.473245 49.755524 -32.156985 0.000000 0.000000 0.000000 10.940375 0.179060 -1.137707 -1.270602 -12.161470 20.444804 3.159197 -0.872567 -1.744506 -75.216700 -42.137670 -51.853430 -95.894565 -29.323232 -90.582816 0.000000 0.000000 0.000000 8.948947 -0.204735 -1.467820 -1.708142 21.185724 -4.343756 3.624130 -3.269997 4.140187 -67.485800 11.025804 23.697727 132.031778 41.112213 -128.760568 0.000000 0.000000 0.000000 
-20.710386 102.111664 -7.847172 0.000000 0.000000 0.000000 -170.690785 -44.248578 -163.212930 -131.380656 -20.335505 5.516502 90.517997 -19.309157 -37.140086 48.070766 -21.984024 -30.068084 -18.742042 -2.622538 5.610493 0.000000 0.000000 0.000000 -172.207046 -38.370613 -165.490252 -10.774098 38.415538 -3.631831 37.173072 11.170458 -3.615513 -9.909449 17.338341 3.102982 -9.795322 1.677307 5.304721 0.000000 0.000000 0.000000 -171.035559 -43.457919 -164.119965 20.584585 5.415415 1.349475 8.291384 0.473498 -0.985188 0.457770 -2.474188 1.092637 0.000000 0.000000 0.000000 11.996409 0.486796 -1.941573 8.784800 39.574639 2.892642 6.976358 50.412998 -32.600828 0.000000 0.000000 0.000000 11.358284 0.186550 -1.450158 -0.908242 -12.119872 24.488296 3.539585 -1.157282 -1.865773 -81.507823 -38.271186 -54.385514 -95.364310 -30.868767 -90.068605 0.000000 0.000000 0.000000 9.183112 -0.214917 -1.791672 -0.676994 21.583883 -8.210853 3.685710 -3.564994 4.112460 -72.347522 8.784544 20.886438 133.921800 41.392480 -131.063885 0.000000 0.000000 0.000000 
-21.157738 102.198151 -8.011429 0.000000 0.000000 0.000000 -170.027669 -43.139068 -161.311883 -133.579881 -19.586408 6.230249 90.793923 -19.651178 -38.029086 46.239390 -20.627315 -31.234790 -19.359449 -2.758736 6.023804 0.000000 0.000000 0.000000 -171.858529 -37.354967 -163.997418 -9.891816 39.685148 -5.522091 38.779369 11.212411 -3.009922 -10.397834 17.187833 3.793053 -10.499269 1.578506 5.500708 0.000000 0.000000 0.000000 -170.396773 -42.427656 -162.346889 21.023807 5.473396 1.258825 8.417681 0.369343 -1.239538 0.424017 -2.794348 1.154551 0.000000 0.000000 0.000000 12.248470 0.383684 -2.234014 10.218169 39.710686 1.694478 6.536973 50.815310 -32.914221 0.000000 0.000000 0.000000 11.610831 0.090984 -1.690211 -0.563871 -12.273206 28.087534 3.761833 -1.478294 -1.937797 -85.719209 -35.310350 -55.684357 -95.168694 -32.449136 -90.000030 0.000000 0.000000 0.000000 9.250565 -0.296992 -2.014287 0.194407 21.835427 -11.385895 3.836719 -3.743358 4.222748 -76.310241 6.035673 17.549792 135.916339 41.764957 -133.380412 0.000000 0.000000 0.000000 
-21.470621 101.998405 -8.059380 0.000000 0.000000 0.000000 -169.808557 -42.200621 -159.927022 -133.636012 -19.360357 6.736489 90.160211 -18.453493 -39.984805 42.696790 -17.471433 -32.107544 -20.315153 -2.705193 5.810611 0.000000 0.000000 0.000000 -171.598203 -37.314129 -162.738232 -9.930370 40.650328 -6.959945 40.679688 11.054072 -2.411787 -11.765453 16.536667 4.037361 -9.034451 1.675004 5.906298 0.000000 0.000000 0.000000 -169.774215 -42.011968 -160.556710 21.384738 5.361740 1.100163 8.350953 0.155034 -1.438797 0.472527 -3.195958 1.136164 0.000000 0.000000 0.000000 12.384482 0.226413 -2.435757 11.521295 39.762937 0.640455 6.041725 50.956230 -32.991224 0.000000 0.000000 0.000000 11.684429 -0.086393 -1.877954 -0.227513 -12.560361 31.115992 3.673463 -1.645868 -2.010900 -88.312468 -33.461565 -56.148861 -95.233478 -34.089915 -90.323726 0.000000 0.000000 0.000000 9.176148 -0.425195 -2.144915 0.832207 21.958420 -13.657919 4.076095 -3.835753 4.468063 -79.527116 3.104490 14.007881 137.840608 42.184744 -135.597587 0.000000 0.000000 0.000000 
-21.573263 101.562981 -7.856750 0.000000 0.000000 0.000000 -169.994352 -41.761231 -159.015150 -133.323462 -19.708601 7.432631 90.146845 -17.708387 -41.679723 39.608533 -15.225952 -32.644104 -21.032272 -2.649192 5.296553 0.000000 0.000000 0.000000 -171.495354 -38.005187 -161.664553 -10.884041 41.388914 -7.951315 42.534310 10.904317 -1.914855 -13.510617 15.621391 4.236498 -6.513523 1.951676 6.385020 0.000000 0.000000 0.000000 -169.434358 -42.297357 -159.136427 21.626022 5.138674 0.830919 8.107979 -0.133833 -1.585026 0.490402 -3.597406 1.201034 0.000000 0.000000 0.000000 12.393849 0.025441 -2.561346 12.524580 39.741893 -0.162016 5.552864 50.896627 -32.862721 0.000000 0.000000 0.000000 11.608841 -0.327649 -2.038007 0.110221 -12.920534 33.498632 3.191771 -1.845330 -1.968321 -89.634301 -32.665305 -56.071089 -95.383476 -35.768673 -90.840409 0.000000 0.000000 0.000000 9.003278 -0.590978 -2.195524 1.212471 21.951506 -14.954955 4.350644 -4.045041 4.587109 -82.169327 0.256427 10.748355 139.634748 42.541225 -137.717214 0.000000 0.000000 0.000000 
-21.582539 101.157944 -7.387756 0.000000 0.000000 0.000000 -170.677657 -41.835165 -158.685239 -134.071067 -21.213816 7.701382 91.686042 -19.007003 -41.723037 39.883664 -16.390823 -33.283399 -22.214852 -2.948960 5.538405 0.000000 0.000000 0.000000 -171.588258 -39.222112 -160.766015 -12.486800 41.941050 -8.592819 44.201214 10.877525 -1.618660 -14.651077 14.613852 4.858429 -4.550731 2.297195 6.741146 0.000000 0.000000 0.000000 -169.527959 -43.182648 -158.319987 21.772924 4.847595 0.450796 7.675878 -0.468261 -1.695110 0.685621 -4.053488 1.282882 0.000000 0.000000 0.000000 12.230993 -0.212262 -2.635652 13.117663 39.683891 -0.617062 5.166243 50.742739 -32.598164 0.000000 0.000000 0.000000 11.405745 -0.632346 -2.177602 0.412227 -13.238300 35.202638 2.462386 -2.015511 -1.764738 -90.236860 -32.674768 -55.806798 -95.513126 -37.284118 -91.370323 0.000000 0.000000 0.000000 8.741361 -0.802345 -2.180435 1.358653 21.766696 -15.445032 4.660790 -4.171566 4.523371 -84.278729 -2.202167 8.092114 141.396951 42.625230 -139.894350 0.000000 0.000000 0.000000 
